<mxfile host="app.diagrams.net" modified="2023-11-06T02:19:35.495Z" agent="Mozilla/5.0 (Windows NT 10.0; Win64; x64) AppleWebKit/537.36 (KHTML, like Gecko) Chrome/119.0.0.0 Safari/537.36" version="22.0.8" etag="p8sN7_dDz_lw0LqR9gL_" type="github">
  <diagram name="第 1 页" id="ydQBL92T4nrFLDHNbY_V">
    <mxGraphModel>
      <root>
        <mxCell id="0" />
        <mxCell id="1" parent="0" />
      </root>
    </mxGraphModel>
  </diagram>
</mxfile>
